<?xml version="1.0" standalone="no"?>
<!DOCTYPE svg PUBLIC "-//W3C//DTD SVG 20010904//EN"
 "http://www.w3.org/TR/2001/REC-SVG-20010904/DTD/svg10.dtd">
<svg version="1.0" xmlns="http://www.w3.org/2000/svg"
 width="240.000000pt" height="240.000000pt" viewBox="0 0 240.000000 240.000000"
 preserveAspectRatio="xMidYMid meet">
<metadata>
Created by potrace 1.11, written by Peter Selinger 2001-2013
</metadata>
<g transform="translate(0.000000,240.000000) scale(0.100000,-0.100000)"
fill="#000000" stroke="none">
<path d="M955 2360 c-3 -5 -5 -10 -3 -11 33 -8 38 -7 27 7 -14 17 -16 17 -24
4z"/>
<path d="M1159 2356 c8 -10 9 -16 1 -21 -5 -3 -10 -1 -10 4 0 6 -8 11 -17 11
-14 0 -15 -2 -4 -9 9 -6 5 -8 -13 -8 -21 0 -24 2 -15 13 10 12 9 13 -5 8 -9
-3 -16 -11 -16 -17 0 -6 -7 -2 -16 9 -14 18 -15 18 -9 -6 5 -21 4 -22 -5 -7
-13 20 -41 22 -58 5 -7 -7 -12 -8 -12 -2 0 5 -5 2 -10 -6 -6 -10 -10 -11 -10
-2 0 6 -5 12 -11 12 -5 0 -7 -4 -4 -10 3 -6 -1 -7 -10 -4 -8 4 -21 1 -29 -5
-7 -6 -16 -8 -19 -4 -4 3 -15 0 -24 -8 -17 -12 -17 -12 -2 5 14 15 31 22 62
25 4 1 7 6 7 12 0 8 -5 8 -15 -1 -8 -7 -15 -10 -15 -6 0 4 -12 0 -27 -7 -16
-8 -34 -12 -40 -10 -7 3 -13 0 -13 -7 0 -6 5 -8 13 -4 8 5 8 3 -2 -9 -14 -18
-36 -13 -25 6 5 8 3 8 -7 0 -20 -19 -33 -16 -18 5 13 15 12 16 -4 3 -13 -11
-15 -17 -6 -28 9 -11 9 -12 -3 -8 -8 3 -20 -1 -27 -9 -10 -12 -18 -13 -32 -5
-15 7 -19 6 -19 -6 0 -8 -5 -15 -11 -15 -5 0 -8 4 -5 8 2 4 0 14 -6 22 -8 12
-9 11 -4 -4 5 -14 2 -17 -10 -12 -14 5 -15 4 -4 -9 7 -9 10 -18 6 -22 -3 -3
-6 -2 -6 4 0 6 -7 14 -16 17 -15 6 -15 4 -3 -10 13 -16 12 -16 -10 -5 -15 9
-26 10 -33 3 -7 -7 -4 -10 7 -9 10 1 19 -4 21 -11 1 -7 0 -8 -3 -2 -3 6 -16 2
-34 -11 -16 -11 -33 -17 -39 -14 -5 3 -10 -2 -10 -11 0 -16 -1 -16 -15 2 -14
18 -14 17 -5 -10 9 -23 8 -27 -2 -19 -16 12 -49 13 -42 1 3 -5 10 -6 15 -3 5
4 9 2 9 -3 0 -6 -7 -13 -16 -16 -22 -8 -26 -8 -19 4 3 6 -1 7 -10 4 -10 -4
-12 -10 -6 -18 6 -8 6 -17 -1 -26 -8 -13 -9 -12 -5 2 3 9 1 15 -6 14 -20 -3
-37 -17 -37 -29 0 -7 7 -3 15 7 8 11 15 15 15 9 0 -6 -6 -16 -14 -22 -10 -8
-16 -8 -25 2 -15 19 -62 13 -75 -10 -13 -24 -17 -61 -6 -68 14 -9 0 -34 -16
-28 -10 4 -12 0 -8 -11 4 -9 3 -16 -2 -15 -22 6 -72 -14 -77 -30 -5 -22 16
-64 28 -54 5 4 -1 -6 -13 -24 -12 -17 -22 -37 -22 -45 0 -10 -3 -9 -10 2 -8
13 -11 13 -22 1 -10 -10 -10 -12 0 -7 6 4 12 2 12 -3 0 -6 -4 -11 -8 -11 -5 0
-17 -7 -28 -16 -18 -15 -18 -15 3 -5 34 17 40 12 13 -10 -14 -11 -20 -18 -13
-15 6 4 15 2 18 -4 4 -6 1 -9 -7 -8 -7 2 -14 -4 -14 -12 -1 -8 -3 -19 -4 -25
-1 -5 -2 -13 -2 -16 1 -4 -8 -4 -20 -1 -19 5 -20 4 -7 -10 7 -9 19 -13 24 -10
6 2 4 -1 -3 -9 -11 -12 -14 -12 -22 1 -8 13 -10 12 -10 -2 0 -10 4 -18 8 -18
4 0 8 -9 8 -19 0 -11 -3 -18 -6 -16 -3 2 -14 -4 -25 -12 -15 -12 -16 -14 -3
-10 12 4 16 1 15 -14 -1 -20 -17 -27 -17 -7 0 6 -3 8 -7 4 -5 -4 1 -14 11 -22
17 -12 17 -14 3 -14 -13 0 -15 -5 -7 -24 10 -26 3 -66 -12 -66 -5 0 -7 4 -3 9
9 15 -15 25 -28 12 -9 -9 -7 -10 7 -5 13 5 17 4 12 -4 -3 -6 -1 -14 5 -18 9
-5 6 -11 -7 -21 -19 -14 -19 -14 0 -11 10 2 21 -3 23 -10 3 -8 -1 -10 -11 -6
-12 5 -15 2 -9 -12 5 -13 3 -15 -7 -9 -9 5 -11 4 -6 -4 6 -9 11 -9 24 1 13 11
15 11 10 -3 -4 -9 -2 -21 4 -27 6 -6 6 -12 -3 -17 -7 -5 -10 -4 -5 3 3 6 2 13
-4 17 -6 4 -10 -5 -10 -20 0 -14 4 -24 9 -20 6 3 8 -4 6 -15 -2 -11 2 -20 8
-20 8 0 8 -3 2 -8 -5 -4 -11 -11 -12 -17 -1 -5 -5 -19 -8 -30 -6 -17 -5 -18 5
-5 9 12 11 10 6 -12 -4 -19 -2 -27 6 -24 7 1 10 1 6 -1 -5 -3 -3 -14 4 -26
l11 -22 -23 20 -23 20 18 -27 c9 -15 20 -26 24 -23 4 2 7 -10 7 -28 -1 -23 3
-31 13 -29 12 3 12 0 2 -12 -10 -12 -9 -17 6 -26 12 -7 13 -10 3 -7 -10 3 -16
-2 -16 -14 0 -22 12 -25 19 -6 5 12 11 -16 8 -39 -1 -7 6 -15 15 -18 15 -6 15
-8 -2 -28 -19 -21 -19 -21 6 -8 23 12 24 12 11 -4 -13 -16 -13 -17 4 -14 10 1
20 -4 22 -12 4 -13 3 -13 -6 0 -9 12 -11 11 -11 -7 0 -23 32 -63 50 -63 6 0 9
-3 9 -7 -4 -22 2 -33 13 -27 8 5 7 0 -2 -11 -9 -11 -10 -16 -2 -11 7 4 12 1
12 -9 0 -9 4 -13 10 -10 6 3 7 -1 4 -9 -4 -11 0 -16 11 -16 12 0 16 -6 12 -20
-3 -12 -1 -17 5 -14 5 3 8 0 7 -7 -3 -22 12 -50 23 -43 6 4 8 1 6 -7 -3 -8
-11 -13 -17 -11 -7 1 -10 -2 -6 -8 3 -6 10 -8 15 -5 5 3 11 1 15 -4 3 -5 -3
-14 -12 -20 -10 -6 -13 -11 -7 -11 21 0 35 25 22 38 -7 7 -8 12 -2 12 5 0 15
-9 22 -21 8 -12 9 -18 3 -14 -6 3 -11 2 -11 -4 0 -5 -3 -18 -6 -28 -6 -17 -6
-17 7 -1 10 13 18 15 29 8 11 -7 11 -10 2 -10 -7 0 -10 -5 -6 -12 4 -6 3 -8
-2 -5 -6 3 -16 1 -24 -4 -13 -9 -13 -10 0 -8 28 3 41 -1 35 -10 -3 -5 0 -13 5
-16 7 -5 5 -11 -6 -19 -13 -10 -14 -15 -4 -21 9 -5 11 -4 6 3 -9 15 -1 15 24
2 16 -8 18 -8 14 5 -3 8 -11 12 -18 8 -6 -3 -8 -3 -4 2 4 4 2 15 -4 24 -7 9
-8 13 -4 9 5 -4 15 -3 21 2 9 7 12 5 12 -7 0 -35 3 -42 16 -39 6 1 9 1 5 -1
-5 -3 -8 -9 -8 -14 0 -6 4 -8 9 -5 4 3 17 -1 27 -9 18 -15 18 -15 -1 -8 -18 6
-18 5 -6 -10 9 -11 18 -14 25 -8 8 7 12 -1 13 -25 2 -30 0 -33 -16 -25 -13 7
-18 6 -18 -4 0 -7 6 -11 13 -8 8 3 11 -4 10 -21 -2 -14 1 -23 6 -20 5 3 7 13
6 21 -2 9 2 18 9 20 8 3 11 -3 8 -16 -2 -11 1 -23 6 -26 5 -4 7 -11 3 -16 -3
-6 4 -5 16 3 18 10 24 10 27 0 3 -7 11 -19 19 -26 19 -19 18 -32 -1 -16 -8 7
-15 8 -15 4 0 -5 9 -15 21 -22 12 -8 19 -10 16 -5 -3 5 -1 15 5 23 8 13 9 12
5 -2 -3 -9 1 -22 9 -28 17 -15 19 -44 2 -34 -7 4 -8 3 -4 -4 10 -17 36 -3 29
16 -4 13 -2 12 10 -3 9 -11 16 -24 17 -30 0 -5 -4 -4 -9 3 -6 11 -9 9 -13 -5
-4 -13 0 -19 13 -19 10 0 15 4 13 8 -3 4 0 8 6 8 6 0 8 5 4 12 -4 7 -3 8 5 4
6 -4 9 -13 5 -19 -3 -7 2 -3 10 7 12 15 16 16 16 5 1 -8 7 -3 15 11 13 24 14
24 12 2 -1 -20 -9 -26 -29 -23 -5 0 -8 -4 -8 -10 0 -6 9 -8 21 -4 16 6 20 4
14 -6 -5 -8 -4 -10 0 -6 10 9 17 34 16 62 0 16 2 17 9 5 9 -14 14 -7 11 13 0
4 3 7 9 7 5 0 10 -5 10 -11 0 -5 5 -7 12 -3 7 5 8 3 2 -7 -14 -22 -13 -36 2
-36 11 0 11 3 1 16 -10 12 -9 14 4 9 12 -5 15 -1 11 18 -2 13 -7 22 -11 20 -4
-3 -13 5 -21 17 -12 21 -12 21 5 7 14 -11 19 -12 22 -2 3 6 9 12 15 12 7 0 6
-5 -1 -14 -9 -10 -8 -16 4 -26 8 -7 12 -17 8 -23 -4 -6 -1 -7 6 -2 8 4 9 11 3
17 -12 12 47 80 61 71 6 -3 7 -1 3 6 -4 6 -12 9 -17 6 -5 -3 -6 2 -2 11 5 13
3 15 -7 9 -9 -5 -11 -4 -6 4 6 8 12 9 20 2 7 -6 17 -7 21 -3 5 4 5 1 1 -6 -13
-22 27 -10 42 13 12 18 13 18 8 1 -5 -13 -2 -17 8 -13 7 3 19 0 26 -6 10 -9
11 -9 6 0 -5 8 -1 13 9 13 10 0 13 -5 9 -12 -6 -9 -3 -9 9 0 9 8 22 10 29 6
19 -12 39 -14 32 -3 -3 5 -11 6 -17 3 -7 -4 -9 -3 -4 1 10 12 47 14 53 3 3 -4
10 -8 15 -8 6 0 8 4 5 8 -3 5 1 9 9 9 8 0 15 -7 15 -14 0 -8 5 -11 10 -8 6 4
7 12 3 18 -3 7 2 5 13 -4 35 -30 62 -40 70 -27 4 6 3 8 -2 5 -6 -3 -16 -2 -24
3 -12 8 -13 11 -2 22 11 11 13 10 10 -2 -2 -10 4 -15 19 -14 20 1 21 0 8 -18
-12 -18 -11 -23 11 -43 13 -12 21 -25 17 -29 -3 -3 -14 1 -24 10 -13 12 -19
12 -25 3 -4 -7 -3 -10 3 -6 6 4 16 0 23 -8 10 -12 16 -13 28 -3 13 11 14 10 8
-8 -4 -14 -1 -26 11 -35 15 -11 16 -11 6 1 -7 8 -13 18 -13 23 0 4 6 5 13 0 6
-4 4 5 -6 20 -9 15 -13 27 -7 27 5 0 10 -5 10 -11 0 -5 4 -8 9 -5 5 3 8 -2 7
-11 0 -10 5 -18 12 -19 6 -1 17 -2 22 -3 6 0 10 -8 10 -16 0 -16 20 -16 32 0
5 6 8 5 8 -2 0 -7 5 -13 11 -13 6 0 9 7 5 15 -4 13 -2 13 14 5 24 -13 43 -13
35 0 -3 5 1 10 9 10 20 0 20 -5 0 -24 -8 -9 -10 -16 -4 -16 6 0 13 7 16 15 4
8 10 13 14 10 5 -3 6 4 3 15 -3 11 -10 17 -16 13 -6 -3 -7 -1 -3 6 4 6 13 11
19 9 7 -1 22 2 35 6 l22 7 -22 20 c-14 11 -17 18 -8 17 9 -2 14 5 15 19 0 12
4 25 9 30 5 4 6 3 3 -3 -5 -8 5 -11 28 -11 19 1 35 2 35 3 0 1 -8 8 -17 15
-14 12 -16 12 -8 0 5 -10 4 -12 -4 -7 -6 4 -8 12 -5 18 5 8 1 9 -12 4 -15 -6
-16 -5 -7 5 9 9 16 9 26 1 8 -7 17 -9 20 -5 4 3 7 1 7 -5 0 -7 6 -12 13 -12 6
1 1 10 -12 21 -13 11 -21 22 -17 26 3 3 6 3 6 -2 0 -4 8 -1 18 6 15 12 16 12
5 -1 -10 -13 -8 -18 6 -27 14 -9 18 -8 18 3 0 7 -4 11 -9 8 -5 -4 -8 2 -6 12
2 14 -3 19 -17 17 -18 -1 -19 -1 -3 11 14 10 15 15 5 26 -10 12 -9 12 5 1 9
-7 22 -10 28 -6 6 4 18 1 27 -7 14 -11 16 -11 8 2 -16 26 -14 40 10 64 16 16
23 33 20 52 -2 26 -2 27 11 9 11 -15 11 -21 1 -34 -8 -10 -8 -13 0 -8 6 4 13
4 16 0 2 -5 2 -2 1 4 -2 7 3 16 11 20 8 5 16 19 18 32 2 13 12 30 22 37 10 8
13 14 7 14 -7 0 -12 5 -12 11 0 5 5 7 12 3 7 -4 8 -3 4 5 -10 16 -29 3 -22
-16 4 -9 2 -11 -6 -7 -6 4 -8 3 -4 -4 3 -6 1 -14 -6 -18 -7 -4 -10 -4 -6 1 4
4 2 15 -5 23 -10 13 -9 14 2 7 11 -6 13 -4 8 9 -4 10 -3 15 3 11 6 -3 10 -1
10 4 0 6 9 11 20 11 11 0 20 4 20 10 0 5 -8 7 -17 4 -14 -5 -15 -4 -4 4 8 6
10 15 5 23 -6 12 -5 12 8 1 14 -11 16 -10 11 7 -3 13 -1 21 6 21 7 0 9 5 5 12
-6 10 -4 10 8 0 14 -11 16 -10 11 9 -4 14 -2 20 4 16 7 -5 9 1 6 15 -3 14 -1
18 4 12 5 -8 14 -4 27 14 11 14 15 22 9 19 -6 -4 -13 -1 -16 7 -4 10 0 12 14
9 15 -4 18 -2 12 13 -5 14 -3 16 11 11 9 -4 15 -3 11 2 -3 5 1 12 7 15 7 3 3
3 -9 0 -20 -5 -20 -2 7 26 16 17 29 35 29 38 -4 25 3 52 10 47 5 -3 13 0 17 6
4 8 3 9 -4 5 -18 -11 -14 5 4 19 15 10 15 13 -1 28 -13 14 -14 17 -2 17 8 0
20 7 27 15 9 10 9 15 1 15 -6 0 -11 -5 -11 -11 0 -5 -5 -7 -11 -3 -8 5 -8 9 1
14 7 4 10 13 6 19 -5 7 -1 9 9 5 17 -7 17 16 0 28 -6 4 -1 8 10 8 l20 1 -20
16 c-16 13 -17 15 -2 10 20 -7 23 3 5 21 -9 9 -7 13 5 18 9 3 14 10 11 16 -3
5 -13 4 -22 -4 -15 -12 -16 -11 -3 4 7 10 17 16 21 13 5 -3 12 -1 15 5 4 6 3
10 -2 9 -21 -4 -24 3 -6 18 10 10 14 15 7 10 -8 -5 -11 1 -11 18 0 13 3 22 8
19 5 -3 6 2 3 10 -3 9 -10 16 -16 16 -5 0 -6 5 -3 10 4 6 10 8 14 6 9 -6 5 53
-5 62 -4 4 -4 -2 0 -13 6 -16 5 -18 -5 -7 -10 9 -10 15 -1 24 9 9 8 16 -6 32
-10 12 -12 16 -3 11 11 -6 13 -4 8 7 -3 9 -1 20 5 26 6 6 6 12 -3 17 -8 6 -10
4 -4 -5 5 -9 4 -11 -3 -6 -9 5 -9 13 -2 26 8 15 7 18 -3 14 -9 -3 -13 4 -13
20 0 14 3 23 6 21 3 -2 6 6 7 18 0 12 -1 16 -4 10 -3 -7 -12 -13 -21 -12 -11
0 -12 2 -4 6 14 6 16 33 2 33 -5 0 -10 7 -10 15 0 8 5 15 10 15 6 0 5 6 -2 14
-9 10 -15 11 -20 2 -5 -7 -8 -7 -8 0 0 5 5 15 11 21 8 8 7 13 -2 18 -8 6 -10
4 -4 -6 8 -12 6 -12 -8 0 -18 15 -23 26 -7 16 6 -3 10 1 10 9 0 9 -6 16 -14
16 -8 0 -12 9 -10 26 2 19 -1 24 -12 20 -8 -3 -13 -2 -9 3 3 5 2 11 -2 14 -5
2 -3 2 4 1 7 -2 15 2 19 8 4 7 3 8 -4 4 -7 -4 -12 -2 -12 5 0 7 -3 10 -6 6
-10 -10 -32 17 -26 32 4 10 1 12 -9 6 -12 -7 -12 -6 -1 7 11 14 10 18 -4 26
-10 6 -13 12 -6 16 14 8 -27 86 -45 86 -8 0 -16 7 -20 16 -5 13 -7 13 -14 2
-6 -9 -9 -4 -9 16 0 16 -5 46 -11 67 -13 42 -44 56 -99 44 -29 -6 -36 0 -31
28 1 5 -3 6 -8 3 -5 -4 -14 2 -20 11 -6 10 -11 12 -11 6 0 -21 -28 -15 -35 8
-5 14 -10 17 -18 10 -13 -10 -52 11 -40 22 3 4 11 0 17 -8 9 -12 13 -11 26 3
13 14 12 15 -3 9 -9 -3 -19 -2 -22 2 -3 5 -15 7 -28 3 -19 -5 -20 -3 -9 10 10
13 10 18 1 24 -8 4 -9 3 -5 -4 4 -7 1 -12 -9 -12 -10 0 -13 -5 -9 -12 4 -7 3
-8 -5 -4 -6 4 -8 12 -5 18 5 8 1 9 -10 5 -11 -5 -15 -3 -10 5 5 8 2 9 -9 5 -9
-3 -19 -2 -22 4 -4 5 -10 7 -15 4 -5 -3 -15 3 -22 14 -10 16 -15 18 -27 8 -12
-10 -13 -9 -6 2 6 11 4 13 -9 8 -11 -4 -15 -3 -10 4 4 8 -1 9 -17 4 -20 -7
-22 -6 -11 7 10 13 7 15 -23 11 -24 -2 -34 0 -31 9 1 7 1 10 -1 6 -9 -16 -22
-7 -17 10 5 13 4 14 -4 3 -7 -10 -11 -10 -17 -2 -5 8 -13 5 -26 -10 -10 -12
-19 -17 -19 -11 0 7 -5 12 -11 12 -7 0 -18 8 -26 18 -13 15 -14 15 -9 0 2 -9
-2 -19 -10 -22 -8 -3 -13 -2 -9 3 7 12 -5 41 -17 41 -6 0 -6 -6 1 -14z m131
-36 c0 -5 -4 -10 -10 -10 -5 0 -10 5 -10 10 0 6 5 10 10 10 6 0 10 -4 10 -10z
m430 -202 c0 -5 -7 -3 -15 6 -8 8 -15 18 -15 22 0 3 7 1 15 -6 8 -7 15 -17 15
-22z m-1393 -1514 c-9 -9 -28 6 -21 18 4 6 10 6 17 -1 6 -6 8 -13 4 -17z
m1509 -89 c9 -9 11 -15 4 -15 -6 0 -9 -4 -5 -9 3 -5 1 -13 -5 -16 -6 -4 -10
-3 -9 2 1 4 0 10 -1 13 -5 14 -8 40 -3 40 2 0 11 -7 19 -15z m-93 -90 c-3 -9
-8 -14 -10 -11 -3 3 -2 9 2 15 9 16 15 13 8 -4z m-8 -43 c-3 -3 -11 0 -18 7
-9 10 -8 11 6 5 10 -3 15 -9 12 -12z m-1185 -102 c0 -5 0 -12 0 -15 0 -14 -13
-8 -16 8 -1 9 2 17 7 17 5 0 9 -4 9 -10z m352 -66 c-9 -13 -23 -26 -31 -29
-12 -5 -12 -3 -1 11 12 13 11 17 -1 25 -12 7 -12 9 1 10 8 1 22 0 29 -1 13 -2
13 1 0 17 -13 16 -13 17 3 5 17 -13 17 -15 0 -38z m456 -8 c14 5 14 4 2 -4
-16 -12 -40 2 -40 22 0 6 5 3 11 -6 5 -10 17 -15 27 -12z m250 -22 c2 -1 -5
-5 -15 -8 -9 -4 -14 -4 -10 0 4 4 1 14 -6 23 -11 14 -10 15 8 1 11 -8 21 -15
23 -16z m-64 -17 c-3 -8 -12 -18 -20 -21 -11 -4 -10 0 3 18 20 26 27 28 17 3z"/>
<path d="M1220 2345 c0 -7 30 -13 34 -7 3 4 -4 9 -15 9 -10 1 -19 0 -19 -2z"/>
<path d="M736 2307 c5 -13 2 -16 -10 -11 -9 3 -16 1 -16 -4 0 -19 17 -22 30
-6 10 12 11 17 1 27 -10 9 -11 8 -5 -6z"/>
<path d="M1460 2286 c0 -8 4 -17 9 -20 5 -4 7 3 4 14 -6 23 -13 26 -13 6z"/>
<path d="M1495 2260 c3 -5 8 -10 11 -10 2 0 4 5 4 10 0 6 -5 10 -11 10 -5 0
-7 -4 -4 -10z"/>
<path d="M559 2238 c-5 -18 -6 -38 -1 -34 7 8 12 36 6 36 -2 0 -4 -1 -5 -2z"/>
<path d="M190 1845 c0 -8 -6 -12 -14 -9 -8 3 -16 1 -20 -4 -3 -5 4 -8 16 -7
21 1 48 35 28 35 -5 0 -10 -7 -10 -15z"/>
<path d="M105 1719 c-4 -6 -5 -12 -2 -15 2 -3 7 2 10 11 7 17 1 20 -8 4z"/>
<path d="M50 1478 c0 -9 5 -20 10 -23 13 -8 13 5 0 25 -8 13 -10 13 -10 -2z"/>
<path d="M49 1258 c-6 -20 -6 -39 0 -42 4 -3 7 6 7 20 0 20 -4 32 -7 22z"/>
<path d="M67 1066 c-4 -10 -1 -13 8 -9 8 3 12 9 9 14 -7 12 -11 11 -17 -5z"/>
<path d="M85 1009 c-4 -6 -5 -12 -2 -15 2 -3 7 2 10 11 7 17 1 20 -8 4z"/>
<path d="M1775 410 c-10 -11 -13 -20 -7 -20 7 0 12 5 12 11 0 5 5 7 10 4 6 -4
7 -11 4 -17 -4 -7 -2 -8 5 -4 9 6 9 11 -1 23 -11 14 -10 15 12 9 19 -6 21 -5
10 3 -21 15 -24 14 -45 -9z"/>
<path d="M420 379 c0 -5 3 -8 8 -8 19 3 23 -2 13 -15 -9 -11 -9 -16 0 -22 7
-4 9 -3 5 4 -3 6 -2 13 4 17 6 3 13 0 16 -9 8 -20 31 -28 31 -10 0 8 -3 12 -5
9 -7 -7 -43 26 -37 34 2 4 -5 8 -16 8 -10 1 -19 -2 -19 -8z"/>
<path d="M1785 360 c-3 -6 1 -7 9 -4 18 7 21 14 7 14 -6 0 -13 -4 -16 -10z"/>
<path d="M1724 352 c-9 -5 -8 -11 2 -20 10 -9 14 -9 14 -1 0 8 5 7 18 -2 14
-11 13 -10 -2 9 -11 12 -20 22 -20 22 -1 0 -6 -4 -12 -8z"/>
<path d="M1640 239 c0 -5 -6 -7 -12 -3 -7 4 -10 4 -6 -1 4 -4 3 -13 -2 -20 -7
-8 -5 -12 5 -12 8 0 11 5 8 10 -4 6 0 8 9 4 12 -4 14 -1 11 14 -6 21 -13 26
-13 8z"/>
<path d="M559 238 c-6 -27 -5 -39 4 -45 7 -3 9 -3 5 2 -4 4 -3 14 3 21 7 8 7
14 -1 19 -5 3 -10 5 -11 3z"/>
<path d="M590 160 c0 -5 5 -10 11 -10 5 0 7 5 4 10 -3 6 -8 10 -11 10 -2 0 -4
-4 -4 -10z"/>
<path d="M620 160 c0 -5 5 -10 11 -10 5 0 7 5 4 10 -3 6 -8 10 -11 10 -2 0 -4
-4 -4 -10z"/>
<path d="M800 135 c-7 -9 -8 -15 -2 -15 5 0 12 7 16 15 3 8 4 15 2 15 -2 0 -9
-7 -16 -15z"/>
<path d="M1587 139 c7 -7 15 -10 18 -7 3 3 -2 9 -12 12 -14 6 -15 5 -6 -5z"/>
<path d="M1387 124 c3 -8 12 -14 20 -14 8 0 11 -5 7 -12 -4 -7 -3 -8 5 -4 7 5
8 13 2 23 -11 21 -42 27 -34 7z"/>
<path d="M1490 105 c-7 -9 -10 -18 -6 -22 3 -3 6 -1 6 6 0 7 4 10 9 6 5 -3 12
-1 15 4 11 17 -11 21 -24 6z"/>
<path d="M790 100 c0 -5 5 -10 10 -10 6 0 10 5 10 10 0 6 -4 10 -10 10 -5 0
-10 -4 -10 -10z"/>
<path d="M1445 102 c3 -3 -3 -11 -13 -19 -13 -10 -13 -13 -2 -11 14 3 40 22
40 31 0 2 -7 4 -15 4 -8 0 -13 -3 -10 -5z"/>
<path d="M713 75 c0 -8 4 -12 9 -9 5 3 6 10 3 15 -9 13 -12 11 -12 -6z"/>
<path d="M1515 79 c-3 -4 2 -6 10 -5 21 3 28 13 10 13 -9 0 -18 -4 -20 -8z"/>
</g>
</svg>
